<svg xmlns="http://www.w3.org/2000/svg" xmlns:xlink="http://www.w3.org/1999/xlink" version="1.1" x="0px" y="0px" viewBox="0 0 32 32" style="enable-background:new 0 0 32 32;" xml:space="preserve"><g><g><ellipse cx="16" cy="16" rx="3.3" ry="7"></ellipse></g><g><path d="M22,26c-5.5,0-10-4.5-10-10S16.5,6,22,6s10,4.5,10,10S27.5,26,22,26z M22,7.5c-4.7,0-8.5,3.8-8.5,8.5s3.8,8.5,8.5,8.5    s8.5-3.8,8.5-8.5S26.7,7.5,22,7.5z"></path></g><g><path d="M10,26C4.5,26,0,21.5,0,16S4.5,6,10,6s10,4.5,10,10S15.5,26,10,26z M10,7.5c-4.7,0-8.5,3.8-8.5,8.5s3.8,8.5,8.5,8.5    s8.5-3.8,8.5-8.5S14.7,7.5,10,7.5z"></path></g></g></svg>