<?xml version="1.0" encoding="utf-8"?>
<!-- Generator: Adobe Illustrator 21.1.0, SVG Export Plug-In . SVG Version: 6.00 Build 0)  -->
<svg version="1.1" id="Layer_1" xmlns="http://www.w3.org/2000/svg" xmlns:xlink="http://www.w3.org/1999/xlink" x="0px" y="0px"
	 viewBox="0 0 32 32" style="enable-background:new 0 0 32 32;" xml:space="preserve">
<style type="text/css">
	.st0{fill:#3AC477;stroke:#000000;stroke-width:0.5;stroke-miterlimit:10;}
	.st1{fill:#C43A85;stroke:#000000;stroke-miterlimit:10;}
	.st2{fill:#3AC477;stroke:#000000;stroke-miterlimit:10;}
</style>
<path class="st0" d="M17.4,7.9c2.6-1.1,5.2-1.2,5.2-1.2l3,0.9l2,0.8l1.1,1.1l1.2,2.1l1.3,4.2l-0.6,2.9l-1.6,3l-3.9,2.7l-4.5,0.6
	l-3.4-1.1l-3.2-2.8L17.4,7.9z"/>
<path class="st1" d="M8,7.1C5.9,7.6,5.8,7.5,4.2,9s-3,3.5-3.2,5.1s0.8,6.6,0.8,6.6l2.7,2.9l3.2,1.6l6.3-0.6l3.9-4l-0.4-7.5l-2.1-4.8
	c0,0-0.9-1.2-4.1-1.2"/>
<g>
	<g>
		<ellipse cx="16" cy="16" rx="3.3" ry="7"/>
	</g>
	<g>
		<path d="M22,26c-5.5,0-10-4.5-10-10S16.5,6,22,6s10,4.5,10,10S27.5,26,22,26z M22,7.5c-4.7,0-8.5,3.8-8.5,8.5s3.8,8.5,8.5,8.5
			s8.5-3.8,8.5-8.5S26.7,7.5,22,7.5z"/>
	</g>
	<g>
		<path d="M10,26C4.5,26,0,21.5,0,16S4.5,6,10,6s10,4.5,10,10S15.5,26,10,26z M10,7.5c-4.7,0-8.5,3.8-8.5,8.5s3.8,8.5,8.5,8.5
			s8.5-3.8,8.5-8.5S14.7,7.5,10,7.5z"/>
	</g>
</g>
<path class="st2" d="M25.6,7.1"/>
</svg>
