<?xml version="1.0" encoding="utf-8"?>
<!-- Generator: Adobe Illustrator 21.1.0, SVG Export Plug-In . SVG Version: 6.00 Build 0)  -->
<svg version="1.1" id="Layer_1" xmlns="http://www.w3.org/2000/svg" xmlns:xlink="http://www.w3.org/1999/xlink" x="0px" y="0px"
	 viewBox="0 0 240 116" style="enable-background:new 0 0 240 116;" xml:space="preserve">
<style type="text/css">
	.st0{fill:#137CB9;}
	.st1{fill:#FFFFFF;}
	.st2{fill:#C3C3C3;}
	.st3{fill:#3A94BD;}
	.st4{fill:#5FA531;}
	.st5{fill:#A23071;}
</style>
<g id="Illos">
	<path d="M73.2,110.2h-7.8c-2.1,0-3.8-1.7-3.8-3.8v-5c0-0.3-0.5-1-0.9-1.2l-2.2-0.9c-0.5-0.3-1.4-0.2-1.6,0.2l-3.6,3.6
		c-1.6,1.6-4,1.6-5.5,0l-5.5-5.5c-1.6-1.6-1.6-4,0-5.5l3.6-3.6c0.3-0.3,0.3-1,0.2-1.4l-0.9-2.4c-0.2-0.5-0.7-1-1.2-1h-5
		c-2.1,0-3.8-1.7-3.8-3.8v-7.8c0-2.1,1.7-3.8,3.8-3.8h5c0.3,0,1-0.5,1.2-0.9l0.9-2.3c0.3-0.5,0.2-1.4-0.2-1.6L42.3,60
		c-1.6-1.6-1.6-4,0-5.5l5.5-5.5c1.6-1.6,4-1.6,5.5,0l3.6,3.6c0.3,0.3,1,0.3,1.4,0.2l2.8-1h0.2c0.5-0.2,0.9-0.7,0.9-1v-5
		c0-2.1,1.7-3.8,3.8-3.8h7.8c2.1,0,3.8,1.7,3.8,3.8v5c0,0.3,0.5,1,0.9,1.2l2.3,0.9c0.5,0.3,1.4,0.2,1.6-0.2l3.6-3.6
		c1.6-1.6,4-1.6,5.5,0l5.5,5.5c1.6,1.6,1.6,4,0,5.5l-3.6,3.6c-0.3,0.3-0.3,1-0.2,1.4l0.8,2.3c0.2,0.5,0.7,1,1.2,1h5
		c1,0,2.1,0.5,2.8,1.4c0.5,0.9,0.9,1.7,0.7,2.8v7.6c0,2.1-1.7,3.8-3.8,3.8h-5c-0.3,0-1,0.5-1.2,0.9l-0.9,2.3
		c-0.3,0.5-0.2,1.4,0.2,1.6l3.6,3.6c1.6,1.6,1.6,4,0,5.5l-5.6,5.5c-1.6,1.6-4,1.6-5.5,0l-3.6-3.6c-0.3-0.3-1-0.3-1.4-0.2l-2.4,0.9
		c-0.5,0.2-1,0.7-1,1.2v5C77,108.6,75.3,110.2,73.2,110.2L73.2,110.2z M57.6,95.7c0.7,0,1.4,0.2,2.1,0.5l2.1,0.9
		c1.7,0.5,3.1,2.6,3.1,4.3v5c0,0.2,0.2,0.3,0.3,0.3H73c0.2,0,0.3-0.2,0.3-0.3v-5c0-2.1,1.4-3.8,3.3-4.5l2.1-0.9
		c1.6-0.9,4-0.5,5.4,0.9l3.6,3.6c0.2,0.2,0.5,0.2,0.7,0l5.5-5.5c0.2-0.2,0.2-0.5,0-0.7l-3.6-3.6c-1.4-1.4-1.7-3.6-0.9-5.5l0.9-2.1
		c0.5-1.7,2.6-3.1,4.3-3.1h5c0.2,0,0.3-0.2,0.3-0.3v-7.8v-0.5h-5c-2.1,0-3.8-1.4-4.5-3.3L89.5,66c-0.9-1.6-0.5-4,0.9-5.4L94,57
		c0.2-0.2,0.2-0.5,0-0.7l-5.5-5.5c-0.2-0.2-0.5-0.2-0.7,0l-3.6,3.6c-1.4,1.4-3.6,1.7-5.5,0.9l-2.1-0.9c-1.6-0.5-3.1-2.3-3.1-4.3v-5
		c0-0.2-0.2-0.3-0.3-0.3h-7.8c-0.2,0-0.3,0.2-0.3,0.3v5c0,1.9-1.4,3.8-3.3,4.3l-2.6,1c-1.6,0.9-4,0.5-5.4-0.9l-3.6-3.6
		c-0.2-0.2-0.5-0.2-0.7,0L44,56.4c-0.2,0.2-0.2,0.5,0,0.7l3.6,3.6c1.4,1.4,1.7,3.6,0.9,5.5l-0.9,2.1c-0.5,1.7-2.6,3.1-4.3,3.1h-5
		c-0.2,0-0.3,0.2-0.3,0.3v7.8c0,0.2,0.2,0.3,0.3,0.3h5c2.1,0,3.8,1.4,4.5,3.3l0.9,2.1c0.9,1.6,0.5,4-0.9,5.4l-3.6,3.6
		c-0.2,0.2-0.2,0.5,0,0.7l5.5,5.5c0.2,0.2,0.5,0.2,0.7,0l3.6-3.6C55.2,96.2,56.4,95.7,57.6,95.7z"/>
	<path class="st0" d="M100.2,69.7h-5c-1.2,0-2.4-0.9-2.8-2.1l-0.9-2.3c-0.5-1-0.3-2.6,0.5-3.5l3.6-3.6c0.9-0.9,0.9-2.3,0-3.1
		l-5.5-5.5c-0.9-0.9-2.3-0.9-3.1,0l-3.6,3.6c-0.9,0.9-2.4,1-3.5,0.5l-2.3-0.9c-1-0.3-2.1-1.6-2.1-2.8v-5c0-1.2-1-2.1-2.1-2.1h-7.8
		c-1.2,0-2.1,1-2.1,2.1v5c0,1.2-0.9,2.4-2.1,2.8l-2.6,1c-1,0.5-2.6,0.3-3.5-0.5l-3.6-3.6c-0.9-0.9-2.3-0.9-3.1,0l-5.5,5.5
		c-0.9,0.9-0.9,2.3,0,3.1l3.6,3.6c0.9,0.9,1,2.4,0.5,3.5l-0.9,2.3c-0.3,1-1.7,2.1-2.8,2.1h-5c-1.2,0-2.1,1-2.1,2.1v7.8
		c0,1.2,1,2.1,2.1,2.1h5c1.2,0,2.4,0.9,2.8,2.1l0.9,2.3c0.5,1,0.3,2.6-0.5,3.5l-3.6,3.6c-0.9,0.9-0.9,2.3,0,3.1l5.5,5.5
		c0.9,0.9,2.3,0.9,3.1,0l3.6-3.6c0.9-0.9,2.4-1,3.5-0.5l2.3,0.9c1,0.3,2.1,1.7,2.1,2.8v5c0,1.2,1,2.1,2.1,2.1h7.8
		c1.2,0,2.1-1,2.1-2.1v-5c0-1.2,0.9-2.4,2.1-2.8l2.3-0.9c1-0.5,2.6-0.3,3.5,0.5l3.6,3.6c0.9,0.9,2.3,0.9,3.1,0l5.5-5.5
		c0.9-0.9,0.9-2.3,0-3.1l-3.6-3.6c-0.9-0.9-1-2.4-0.5-3.5l0.9-2.3c0.3-1,1.7-2.1,2.8-2.1h5c1.2,0,2.1-1,2.1-2.1v-7.8
		C102.3,70.8,101.3,69.7,100.2,69.7z"/>
	<path d="M73.2,110.2h-7.8c-2.1,0-3.8-1.7-3.8-3.8v-5c0-0.3-0.5-1-0.9-1.2l-2.2-0.9c-0.5-0.3-1.4-0.2-1.6,0.2l-3.6,3.6
		c-1.6,1.6-4,1.6-5.5,0l-5.5-5.5c-1.6-1.6-1.6-4,0-5.5l3.6-3.6c0.3-0.3,0.3-1,0.2-1.4l-0.9-2.4c-0.2-0.5-0.7-1-1.2-1h-5
		c-2.1,0-3.8-1.7-3.8-3.8v-7.8c0-2.1,1.7-3.8,3.8-3.8h5c0.3,0,1-0.5,1.2-0.9l0.9-2.3c0.3-0.5,0.2-1.4-0.2-1.6L42.3,60
		c-1.6-1.6-1.6-4,0-5.5l5.5-5.5c1.6-1.6,4-1.6,5.5,0l3.6,3.6c0.3,0.3,1,0.3,1.4,0.2l2.8-1h0.2c0.5-0.2,0.9-0.7,0.9-1v-5
		c0-2.1,1.7-3.8,3.8-3.8h7.8c2.1,0,3.8,1.7,3.8,3.8v5c0,0.3,0.5,1,0.9,1.2l2.3,0.9c0.5,0.3,1.4,0.2,1.6-0.2l3.6-3.6
		c1.6-1.6,4-1.6,5.5,0l5.5,5.5c1.6,1.6,1.6,4,0,5.5l-3.6,3.6c-0.3,0.3-0.3,1-0.2,1.4l0.8,2.3c0.2,0.5,0.7,1,1.2,1h5
		c1,0,2.1,0.5,2.8,1.4c0.5,0.9,0.9,1.7,0.7,2.8v7.6c0,2.1-1.7,3.8-3.8,3.8h-5c-0.3,0-1,0.5-1.2,0.9l-0.9,2.3
		c-0.3,0.5-0.2,1.4,0.2,1.6l3.6,3.6c1.6,1.6,1.6,4,0,5.5l-5.6,5.5c-1.6,1.6-4,1.6-5.5,0l-3.6-3.6c-0.3-0.3-1-0.3-1.4-0.2l-2.4,0.9
		c-0.5,0.2-1,0.7-1,1.2v5C77,108.6,75.3,110.2,73.2,110.2L73.2,110.2z M57.6,95.7c0.7,0,1.4,0.2,2.1,0.5l2.1,0.9
		c1.7,0.5,3.1,2.6,3.1,4.3v5c0,0.2,0.2,0.3,0.3,0.3H73c0.2,0,0.3-0.2,0.3-0.3v-5c0-2.1,1.4-3.8,3.3-4.5l2.1-0.9
		c1.6-0.9,4-0.5,5.4,0.9l3.6,3.6c0.2,0.2,0.5,0.2,0.7,0l5.5-5.5c0.2-0.2,0.2-0.5,0-0.7l-3.6-3.6c-1.4-1.4-1.7-3.6-0.9-5.5l0.9-2.1
		c0.5-1.7,2.6-3.1,4.3-3.1h5c0.2,0,0.3-0.2,0.3-0.3v-7.8v-0.5h-5c-2.1,0-3.8-1.4-4.5-3.3L89.5,66c-0.9-1.6-0.5-4,0.9-5.4L94,57
		c0.2-0.2,0.2-0.5,0-0.7l-5.5-5.5c-0.2-0.2-0.5-0.2-0.7,0l-3.6,3.6c-1.4,1.4-3.6,1.7-5.5,0.9l-2.1-0.9c-1.6-0.5-3.1-2.3-3.1-4.3v-5
		c0-0.2-0.2-0.3-0.3-0.3h-7.8c-0.2,0-0.3,0.2-0.3,0.3v5c0,1.9-1.4,3.8-3.3,4.3l-2.6,1c-1.6,0.9-4,0.5-5.4-0.9l-3.6-3.6
		c-0.2-0.2-0.5-0.2-0.7,0L44,56.4c-0.2,0.2-0.2,0.5,0,0.7l3.6,3.6c1.4,1.4,1.7,3.6,0.9,5.5l-0.9,2.1c-0.5,1.7-2.6,3.1-4.3,3.1h-5
		c-0.2,0-0.3,0.2-0.3,0.3v7.8c0,0.2,0.2,0.3,0.3,0.3h5c2.1,0,3.8,1.4,4.5,3.3l0.9,2.1c0.9,1.6,0.5,4-0.9,5.4l-3.6,3.6
		c-0.2,0.2-0.2,0.5,0,0.7l5.5,5.5c0.2,0.2,0.5,0.2,0.7,0l3.6-3.6C55.2,96.2,56.4,95.7,57.6,95.7z"/>
	<circle class="st1" cx="69.4" cy="75.8" r="10.4"/>
	<path d="M69.4,87.9c-6.8,0-12.1-5.4-12.1-12.1s5.4-12.1,12.1-12.1s12.1,5.4,12.1,12.1S76.1,87.9,69.4,87.9z M69.4,67.1
		c-4.8,0-8.7,3.8-8.7,8.7s3.8,8.7,8.7,8.7s8.7-3.8,8.7-8.7S74.2,67.1,69.4,67.1z"/>
	<g>
		<path class="st1" d="M152,114.4h-28.2l2.7-29.6H149L152,114.4z"/>
		<path d="M152,116.1h-28.2c-0.5,0-0.9-0.2-1.2-0.5c-0.3-0.3-0.5-0.9-0.5-1.4l2.8-29.6c0-0.9,0.9-1.6,1.7-1.6H149
			c0.9,0,1.6,0.7,1.7,1.6l2.9,29.6c0,0.5-0.2,1-0.5,1.4C153,116.1,152.5,116.1,152,116.1L152,116.1z M125.7,112.7h24.4l-2.6-26.1
			h-19.4C128.1,86.6,125.7,112.7,125.7,112.7z"/>
		<path d="M165,116.3h-54.4c-1,0-1.7-0.7-1.7-1.7s0.7-1.7,1.7-1.7H165c1,0,1.7,0.7,1.7,1.7S166,116.3,165,116.3z"/>
		<g>
			<path class="st1" d="M70.1,2h133v89.7h-133L70.1,2z"/>
			<path d="M203.1,93.4h-133c-1,0-1.7-0.7-1.7-1.7V2c0-1,0.7-1.7,1.7-1.7h133c1,0,1.7,0.7,1.7,1.7v89.7
				C204.8,92.8,204.1,93.4,203.1,93.4z M71.8,90.1h129.5V3.9H71.8V90.1z"/>
			<g>
				<path class="st1" d="M195.3,83.9H77.7V9.6h117.7L195.3,83.9z"/>
				<path d="M195.3,85.7H77.7c-1,0-1.7-0.7-1.7-1.7V9.7c0-1,0.7-1.7,1.7-1.7h117.7c0.5,0,0.9,0.2,1.2,0.5s0.5,0.7,0.5,1.2L196.9,84
					C197,85.1,196.3,85.7,195.3,85.7L195.3,85.7z M79.4,82.2h114.1l0.2-70.8H79.4V82.2z"/>
			</g>
		</g>
	</g>
	<g>
		<path class="st2" d="M95.7,48.6h6.2v26.1h-6.2V48.6z"/>
		<path d="M101.9,76.6h-6.2c-1,0-1.7-0.7-1.7-1.7V48.7c0-1,0.7-1.7,1.7-1.7h6.2c1,0,1.7,0.7,1.7,1.7v26.1
			C103.7,75.8,103,76.6,101.9,76.6z M97.4,73.1h2.8V50.3h-2.8V73.1z"/>
		<path class="st2" d="M107.8,30.9h6.2v44h-6.2V30.9z"/>
		<path d="M114.1,76.7h-6.2c-1,0-1.7-0.7-1.7-1.7V31c0-1,0.7-1.7,1.7-1.7h6.2c1,0,1.7,0.7,1.7,1.7v44
			C115.8,76.1,115.1,76.7,114.1,76.7z M109.6,73.2h2.8V32.7h-2.8V73.2z"/>
		<g>
			<path class="st2" d="M119.6,42.7h6.2v31.9h-6.2V42.7z"/>
			<path d="M125.8,76.3h-6.2c-1,0-1.7-0.7-1.7-1.7V42.7c0-1,0.7-1.7,1.7-1.7h6.2c1,0,1.7,0.7,1.7,1.7v31.9
				C127.6,75.6,126.9,76.3,125.8,76.3z M121.3,72.8h2.8V44.4h-2.8V72.8z"/>
		</g>
	</g>
	<g>
		<path d="M167.6,55.2h-0.2c-0.9-0.2-1.6-1-1.6-1.9l2.4-21.8l-27.9,4.2c-0.9,0.2-1.9-0.5-1.9-1.4c-0.2-0.9,0.5-1.9,1.4-1.9l30.1-4.5
			c0.5,0,1,0.2,1.4,0.5s0.5,0.9,0.5,1.4l-2.6,24.1C169.1,54.6,168.4,55.2,167.6,55.2L167.6,55.2z"/>
		<path class="st3" d="M171.9,53.6c-1.7-4-6.4-5.9-10.6-4c-4,1.7-5.9,6.4-4,10.6c1.7,4,6.4,5.9,10.6,4
			C171.9,62.1,173.8,57.4,171.9,53.6"/>
		<path d="M164.6,66.4c-1.2,0-2.3-0.2-3.5-0.7c-2.4-0.9-4.3-2.8-5.4-5.2c-1-2.4-1.2-5-0.2-7.4c0.9-2.4,2.8-4.3,5.2-5.4
			c2.4-1,5-1.2,7.4-0.2c2.4,0.9,4.3,2.8,5.4,5c1.1,2.2,1.2,5,0.2,7.4c-0.9,2.4-2.8,4.3-5,5.4C167.4,66.3,166,66.4,164.6,66.4
			L164.6,66.4z M164.6,50.6c-0.9,0-1.7,0.2-2.6,0.5c-1.6,0.7-2.8,1.9-3.3,3.5s-0.5,3.3,0.2,4.8c0.7,1.6,1.9,2.8,3.5,3.3
			s3.3,0.5,4.8-0.2c1.6-0.7,2.8-2.1,3.3-3.6c0.5-1.6,0.5-3.3-0.2-4.7c-0.7-1.6-1.9-2.8-3.5-3.3C166.2,50.6,165.5,50.6,164.6,50.6z"
			/>
		<path class="st4" d="M177.3,26.3c-1.7-4-6.4-5.9-10.6-4c-4,1.7-5.9,6.4-4,10.6c1.7,4,6.4,5.9,10.6,4
			C177.3,34.9,179.2,30.3,177.3,26.3"/>
		<path d="M170,39.3c-1.2,0-2.3-0.2-3.5-0.7c-2.4-0.9-4.3-2.8-5.4-5.2c-1-2.4-1.2-5-0.2-7.4c0.9-2.4,2.8-4.3,5.2-5.4
			c2.4-1,5-1.2,7.4-0.2c2.4,0.9,4.3,2.8,5.4,5c2.3,4.7,0.2,10.6-4.8,12.8C172.8,39.1,171.4,39.3,170,39.3L170,39.3z M170,23.3
			c-0.9,0-1.7,0.2-2.6,0.5c-1.6,0.7-2.8,1.9-3.3,3.5s-0.5,3.3,0.2,4.8s1.9,2.8,3.5,3.3s3.3,0.5,4.8-0.2c3.1-1.6,4.7-5.2,3.1-8.3
			c-0.7-1.6-1.9-2.8-3.5-3.3C171.5,23.3,170.9,23.3,170,23.3z"/>
		<g>
			<path d="M170,39.3c-5.4,0-9.7-4.3-9.7-9.7s4.3-9.7,9.7-9.7s9.7,4.3,9.7,9.7C179.7,35.1,175.4,39.3,170,39.3z M170,23.3
				c-3.5,0-6.2,2.8-6.2,6.2s2.8,6.2,6.2,6.2s6.2-2.8,6.2-6.2S173.4,23.3,170,23.3z"/>
		</g>
		<g>
			<circle class="st5" cx="140" cy="32.5" r="8"/>
			<path d="M140,42.2c-5.4,0-9.7-4.3-9.7-9.7s4.3-9.7,9.7-9.7s9.7,4.3,9.7,9.7S145.4,42.2,140,42.2z M140,26.3
				c-3.5,0-6.2,2.8-6.2,6.2c0,3.5,2.8,6.2,6.2,6.2s6.2-2.8,6.2-6.2C146.3,29,143.5,26.3,140,26.3z"/>
		</g>
	</g>
</g>
</svg>
