<?xml version="1.0" encoding="utf-8"?>
<!-- Generator: Adobe Illustrator 21.1.0, SVG Export Plug-In . SVG Version: 6.00 Build 0)  -->
<svg version="1.1" id="Layer_1" xmlns="http://www.w3.org/2000/svg" xmlns:xlink="http://www.w3.org/1999/xlink" x="0px" y="0px"
	 viewBox="0 0 48 48" style="enable-background:new 0 0 48 48;" xml:space="preserve">
<style type="text/css">
	.st0{fill:#5FA531;stroke:#000000;stroke-miterlimit:10;}
	.st1{fill:#5FA531;stroke:#000000;stroke-width:0.75;stroke-miterlimit:10;}
	.st2{fill:#3A94BD;stroke:#000000;stroke-miterlimit:10;}
</style>
<path class="st0" d="M16.7,15.3c0.7-1,2.5-1,2.5-1l1.8,2.3l-1.8,2.6l-2.3-0.7l-0.7-2L16.7,15.3z"/>
<path class="st0" d="M27.9,23.3c0.7-1,2.5-1,2.5-1l1.8,2.3l-1.8,2.6l-2.3-0.7l-0.7-2L27.9,23.3z"/>
<path class="st1" d="M39.5,15.1c0.7-1,2.5-1,2.5-1l1.8,2.3L42.1,19l-2.3-0.7l-0.7-2L39.5,15.1z"/>
<path class="st1" d="M5,23.3c0.7-1,2.5-1,2.5-1l1.8,2.3l-1.8,2.6l-2.3-0.7l-0.7-2L5,23.3z"/>
<path class="st2" d="M4.8,32.5c-0.1,0,5.8,0,5.8,0v8.9H5.5h-1L4.8,32.5z"/>
<polyline class="st2" points="15.3,26 21.1,26 21.1,41.3 15.3,41.3 "/>
<polyline class="st2" points="37.6,26 43.4,26 43.4,41.3 37.6,41.3 "/>
<path class="st2" d="M27.1,32.3c-0.1,0,5.8,0,5.8,0v8.9h-5.1h-1L27.1,32.3z"/>
<g>
	<path d="M47,0H1C0.4,0,0,0.4,0,1v46c0,0.6,0.4,1,1,1h46c0.6,0,1-0.4,1-1V1C48,0.4,47.6,0,47,0z M46,46H2V10h44V46z M46,8H2V2h44V8z
		"/>
	<path d="M42.4,4h-2.3c-0.6,0-1,0.4-1,1s0.4,1,1,1h2.3c0.6,0,1-0.4,1-1S43,4,42.4,4z"/>
	<path d="M35.9,4h-2.3c-0.6,0-1,0.4-1,1s0.4,1,1,1h2.3c0.6,0,1-0.4,1-1S36.4,4,35.9,4z"/>
	<path d="M29.3,4H27c-0.6,0-1,0.4-1,1s0.4,1,1,1h2.3c0.6,0,1-0.4,1-1S29.8,4,29.3,4z"/>
	<path d="M41.1,13.1c-1.9,0-3.4,1.5-3.4,3.4c0,0.4,0.1,0.9,0.2,1.3L31.8,22c-0.6-0.5-1.3-0.8-2.1-0.8c-0.8,0-1.5,0.3-2,0.7l-6.1-4.2
		c0.1-0.3,0.1-0.6,0.1-0.9c0-1.9-1.5-3.4-3.4-3.4s-3.4,1.5-3.4,3.4c0,0.4,0.1,0.7,0.2,1.1L9,22.1c-0.6-0.5-1.3-0.8-2.2-0.8
		c-1.9,0-3.4,1.5-3.4,3.4C3.5,26.5,5,28,6.9,28s3.4-1.5,3.4-3.4c0-0.3,0-0.6-0.1-0.8l6.2-4.3c0.6,0.4,1.3,0.7,2,0.7
		c0.8,0,1.5-0.3,2.1-0.8l6.1,4.2c-0.1,0.3-0.2,0.7-0.2,1c0,1.9,1.5,3.4,3.4,3.4s3.4-1.5,3.4-3.4c0-0.3-0.1-0.6-0.2-0.9l6.4-4.4
		c0.5,0.3,1.2,0.6,1.8,0.6c1.9,0,3.4-1.5,3.4-3.4C44.5,14.6,43,13.1,41.1,13.1z M6.9,26c-0.8,0-1.4-0.6-1.4-1.4s0.6-1.4,1.4-1.4
		s1.4,0.6,1.4,1.4C8.2,25.4,7.6,26,6.9,26z M18.3,18.1c-0.4,0-0.8-0.2-1.1-0.5l0,0l0,0c-0.2-0.2-0.3-0.5-0.3-0.8
		c0-0.8,0.6-1.4,1.4-1.4s1.4,0.6,1.4,1.4c0,0.3-0.1,0.5-0.2,0.7l0,0l0,0C19.3,17.9,18.8,18.1,18.3,18.1z M29.7,26
		c-0.8,0-1.4-0.6-1.4-1.4c0-0.3,0.1-0.6,0.3-0.8l0,0l0,0c0.2-0.3,0.6-0.6,1.1-0.6c0.8,0,1.4,0.6,1.4,1.4S30.5,26,29.7,26z
		 M41.1,17.8c-0.8,0-1.4-0.6-1.4-1.4c0-0.8,0.6-1.4,1.4-1.4c0.8,0,1.4,0.6,1.4,1.4C42.5,17.2,41.9,17.8,41.1,17.8z"/>
	<path d="M10.5,31.4h-6c-0.6,0-1,0.4-1,1v9c0,0.6,0.4,1,1,1h6c0.6,0,1-0.4,1-1v-9C11.5,31.9,11.1,31.4,10.5,31.4z M9.5,40.4h-4v-7h4
		V40.4z"/>
	<path d="M21.2,24.7h-6c-0.6,0-1,0.4-1,1v15.7c0,0.6,0.4,1,1,1h6c0.6,0,1-0.4,1-1V25.7C22.2,25.1,21.7,24.7,21.2,24.7z M20.2,40.4
		h-4V26.7h4V40.4z"/>
	<path d="M32.8,31.4h-6c-0.6,0-1,0.4-1,1v9c0,0.6,0.4,1,1,1h6c0.6,0,1-0.4,1-1v-9C33.8,31.9,33.4,31.4,32.8,31.4z M31.8,40.4h-4v-7
		h4V40.4z"/>
	<path d="M43.5,24.7h-6c-0.6,0-1,0.4-1,1v15.7c0,0.6,0.4,1,1,1h6c0.6,0,1-0.4,1-1V25.7C44.5,25.1,44.1,24.7,43.5,24.7z M42.5,40.4
		h-4V26.7h4V40.4z"/>
</g>
<path class="st2" d="M326.8,191.3c-0.1,0,5.8,0,5.8,0v8.9h-5.1h-1L326.8,191.3z"/>
<path class="st2" d="M326.8,191.3c-0.1,0,5.8,0,5.8,0v8.9h-5.1h-1L326.8,191.3z"/>
<path class="st2" d="M327.1,191.3c-0.1,0,5.8,0,5.8,0v8.9h-5.1h-1L327.1,191.3z"/>
</svg>
