<?xml version="1.0" encoding="utf-8"?>
<!-- Generator: Adobe Illustrator 21.1.0, SVG Export Plug-In . SVG Version: 6.00 Build 0)  -->
<svg version="1.1" id="Layer_1" xmlns="http://www.w3.org/2000/svg" xmlns:xlink="http://www.w3.org/1999/xlink" x="0px" y="0px"
	 viewBox="0 0 79 59" style="enable-background:new 0 0 79 59;" xml:space="preserve">
<style type="text/css">
	.st0{fill:#7DAE38;stroke:#000000;stroke-miterlimit:10;}
	.st1{fill:#3A94BD;stroke:#000000;stroke-miterlimit:10;}
	.st2{fill:#C43A85;stroke:#000000;stroke-miterlimit:10;}
	.st3{fill:none;stroke:#000000;stroke-width:3;}
</style>
<path class="st0" d="M53.6,4c-2.8,2.5-3.8,5.8-3.8,5.8v2.5L54,20l2.2,0.4l-3.2,2l-2,5.3l-4,4.6l7.5,3.5l4.1,4.5l10.4-0.4l6-2
	l2.4-3.3l-0.4-3.4l0.4-1.7L73.3,24l-5.3-2.4l-3.2-1.2l2.6-1.8l2.6-3.9l0.4-5L69,5.9l-3.9-3.5l-4.6-1.1l-5.7,0.9L53.6,4z"/>
<path class="st1" d="M48.3,33.3l-2.2-1.8l5.3-6.9L52,19l-3.7-6.2l-5.6-4.1l-9.1,1.1l-5.9,5.8v8.1l2.5,5.5l5.6,3l-2.6,0.7l-4.5,2.2
	l-4.9,2.7l-5.1,10.2c0.9,5.4,6.5,7.5,6.5,7.5L39.5,58l15.1-2.6l5.6-3.9l0.9-3.9l-2.2-4.9l-3.1-4.4l-5.3-5L48.3,33.3z"/>
<polyline class="st2" points="14.3,20.4 9.3,15.1 8.5,11.3 8.5,7.3 10.8,4 14.3,1.9 18.5,1.3 23.7,2.7 27.6,7 28.6,11.3 27.6,15.6 
	25,21 "/>
<polyline class="st2" points="12.8,20.2 2.5,28.2 1,34.2 2.8,37.1 7.9,39.2 16.8,40.3 21.8,38.7 30.2,32.8 31.7,30.8 28.4,27.5 
	25.3,21 22.1,20 "/>
<title>Users</title>
<desc>Created with Sketch.</desc>
<g>
	<g transform="translate(-342.000000, -48.000000)">
		<g transform="translate(343.000000, 49.000000)">
			<path class="st3" d="M56.6,39.5c9.3,0.5,19.8-1.5,19.8-6c0-6.8-5.3-12.5-12.6-14.2l0,0c3.4-1.6,5.8-5.1,5.8-9.1
				c0-5.5-4.5-10-10-10s-10,4.5-10,10c0,4,2.4,7.5,5.8,9.1C54.1,19.6,53,20,52,20.4c-0.4,0.2-0.7,0.3-1,0.5"/>
			<path class="st3" d="M43.8,31.2c4.2-2,7.2-6.3,7.2-11.3c0-6.9-5.6-12.5-12.5-12.5S26,12.9,26,19.9c0,5,2.9,9.3,7.2,11.3
				c-9,2.1-15.7,9.2-15.7,17.7c0,10.1,42.1,10.1,42.1,0C59.5,40.4,52.9,33.3,43.8,31.2z"/>
			<rect x="51" y="18" width="2" height="2"/>
			<g transform="translate(14.300000, 20.000000) scale(-1, 1) translate(-14.300000, -20.000000) translate(0.300000, 0.000000)">
				<path class="st3" d="M7.8,39.5c9.3,0.5,19.8-1.5,19.8-6c0-6.8-5.3-12.5-12.6-14.2l0,0c3.4-1.6,5.8-5.1,5.8-9.1
					c0-5.5-4.5-10-10-10s-10,4.5-10,10c0,4,2.4,7.5,5.8,9.1c-1.5,0.3-2.9,0.9-4.3,1.5"/>
			</g>
			<rect x="24" y="18" width="2" height="2"/>
		</g>
	</g>
</g>
<path class="st2" d="M73.3,47.1"/>
<path class="st3" d="M66.4,21.6"/>
</svg>
