<svg xmlns="http://www.w3.org/2000/svg" xmlns:xlink="http://www.w3.org/1999/xlink" viewBox="0 0 79 59" version="1.1" x="0px" y="0px"><title>Users</title><desc>Created with Sketch.</desc><g stroke="none" stroke-width="1" fill="none" fill-rule="evenodd"><g transform="translate(-342.000000, -48.000000)"><g transform="translate(343.000000, 49.000000)"><path d="M43.8343519,31.1922027 C48.0837317,29.1870846 51.0242223,24.8635767 51.0242223,19.8532803 C51.0242223,12.9326467 45.4139402,7.32236458 38.4933066,7.32236458 C31.5726729,7.32236458 25.9623908,12.9326467 25.9623908,19.8532803 C25.9623908,24.8635767 28.9028814,29.1870846 33.1522612,31.1922027 C24.1109014,33.2502116 17.4393088,40.4095979 17.4393088,48.9254788 C17.4393088,59.0478685 59.5473044,59.0478685 59.5473044,48.9254788 C59.5473044,40.4095979 52.8757117,33.2502116 43.8343519,31.1922027 Z" stroke="#000000" stroke-width="2"></path><path d="M56.5581452,39.531019 C65.8348311,40.0589717 76.3378435,38.062093 76.3378435,33.5403831 C76.3378435,26.7276783 71.0005694,21.0001693 63.7674816,19.3537621 L63.7674816,19.3537621 C67.1669854,17.7496677 69.5193779,14.2908613 69.5193779,10.2826243 C69.5193779,4.74611733 65.0311522,0.257891667 59.4946453,0.257891667 C53.9581383,0.257891667 49.4699127,4.74611733 49.4699127,10.2826243 C49.4699127,14.2908613 51.8223051,17.7496677 55.221809,19.3537621 C53.7116713,19.6975021 52.284172,20.2191368 50.9706308,20.8914011" stroke="#000000" stroke-width="2"></path><rect fill="#000000" x="51" y="18" width="2" height="2"></rect><g transform="translate(14.300000, 20.000000) scale(-1, 1) translate(-14.300000, -20.000000) translate(0.300000, 0.000000)" stroke="#000000" stroke-width="2"><path d="M7.82028944,39.531019 C17.0969753,40.0589717 27.5999878,38.062093 27.5999878,33.5403831 C27.5999878,26.7276783 22.2627137,21.0001693 15.0296258,19.3537621 L15.0296258,19.3537621 C18.4291297,17.7496677 20.7815221,14.2908613 20.7815221,10.2826243 C20.7815221,4.74611733 16.2932965,0.257891667 10.7567895,0.257891667 C5.2202826,0.257891667 0.732056935,4.74611733 0.732056935,10.2826243 C0.732056935,14.2908613 3.08444943,17.7496677 6.48395324,19.3537621 C4.97381561,19.6975021 3.54631625,20.2191368 2.23277512,20.8914011"></path></g><rect fill="#000000" transform="translate(25.000000, 19.000000) scale(-1, 1) translate(-25.000000, -19.000000) " x="24" y="18" width="2" height="2"></rect></g></g></g></svg>