<svg xmlns="http://www.w3.org/2000/svg" data-name="Layer 1" viewBox="0 0 100 100" x="0px" y="0px"><title>Noun icons</title><path d="M50,17.93a6.65,6.65,0,1,0-6.65-6.65A6.66,6.66,0,0,0,50,17.93Zm0-10.3a3.65,3.65,0,1,1-3.65,3.65A3.65,3.65,0,0,1,50,7.63Z"></path><path d="M40,33.33H60a1.5,1.5,0,0,0,1.5-1.5V25.72a1.5,1.5,0,0,0-.35-1,14.56,14.56,0,0,0-22.29,0,1.5,1.5,0,0,0-.35,1v6.11A1.5,1.5,0,0,0,40,33.33Zm1.5-7a11.56,11.56,0,0,1,17,0v4h-17Z"></path><path d="M43.35,68.49A6.65,6.65,0,1,0,50,61.84,6.66,6.66,0,0,0,43.35,68.49Zm10.3,0A3.65,3.65,0,1,1,50,64.84,3.65,3.65,0,0,1,53.65,68.49Z"></path><path d="M50,76.77A14.55,14.55,0,0,0,38.85,82a1.5,1.5,0,0,0-.35,1V89a1.5,1.5,0,0,0,1.5,1.5H60A1.5,1.5,0,0,0,61.5,89V82.93a1.5,1.5,0,0,0-.35-1A14.55,14.55,0,0,0,50,76.77Zm8.5,10.78h-17v-4a11.56,11.56,0,0,1,17,0Z"></path><path d="M18.76,75.14a6.65,6.65,0,1,0-6.65-6.65A6.66,6.66,0,0,0,18.76,75.14Zm0-10.3a3.65,3.65,0,1,1-3.65,3.65A3.65,3.65,0,0,1,18.76,64.84Z"></path><path d="M18.76,76.77A14.55,14.55,0,0,0,7.62,82a1.5,1.5,0,0,0-.35,1V89a1.5,1.5,0,0,0,1.5,1.5h20a1.5,1.5,0,0,0,1.5-1.5V82.93a1.5,1.5,0,0,0-.35-1A14.55,14.55,0,0,0,18.76,76.77Zm8.5,10.78h-17v-4a11.56,11.56,0,0,1,17,0Z"></path><path d="M74.59,68.49a6.65,6.65,0,1,0,6.65-6.65A6.66,6.66,0,0,0,74.59,68.49Zm10.3,0a3.65,3.65,0,1,1-3.65-3.65A3.65,3.65,0,0,1,84.89,68.49Z"></path><path d="M92.38,82a14.56,14.56,0,0,0-22.29,0,1.5,1.5,0,0,0-.35,1V89a1.5,1.5,0,0,0,1.5,1.5h20a1.5,1.5,0,0,0,1.5-1.5V82.93A1.5,1.5,0,0,0,92.38,82Zm-2.65,5.58h-17v-4a11.56,11.56,0,0,1,17,0Z"></path><path d="M18.76,58.09a1.5,1.5,0,0,0,1.5-1.5v-8H48.5v8a1.5,1.5,0,0,0,3,0v-8H79.74v8a1.5,1.5,0,0,0,3,0V47.23s0-.06,0-.09,0-.06,0-.09a1.5,1.5,0,0,0-1.5-1.5H51.5v-8a1.5,1.5,0,0,0-3,0v8H18.76a1.5,1.5,0,0,0-1.5,1.5s0,.06,0,.09,0,.06,0,.1v9.36A1.5,1.5,0,0,0,18.76,58.09Z"></path></svg>