<?xml version="1.0" encoding="utf-8"?>
<!-- Generator: Adobe Illustrator 21.1.0, SVG Export Plug-In . SVG Version: 6.00 Build 0)  -->
<svg version="1.1" id="Layer_1" xmlns="http://www.w3.org/2000/svg" xmlns:xlink="http://www.w3.org/1999/xlink" x="0px" y="0px"
	 viewBox="0 0 100 100" style="enable-background:new 0 0 100 100;" xml:space="preserve">
<style type="text/css">
	.st0{fill:#BE3881;stroke:#000000;stroke-miterlimit:10;}
	.st1{fill:#B76136;stroke:#000000;stroke-miterlimit:10;}
	.st2{fill:#7DAE38;stroke:#000000;stroke-miterlimit:10;}
	.st3{fill:#3A94BD;stroke:#000000;stroke-miterlimit:10;}
	.st4{fill:#FFFFFF;stroke:#000000;stroke-miterlimit:10;}
</style>
<path class="st0" d="M52.3,15.8c1.1,0.1,2.4-3.1,3.1-5.2c0.7-2-2.3-3.6-2.3-3.6s-3.3-1.1-7.6,0.6v5.4C48.6,16.7,52.3,15.8,52.3,15.8
	z"/>
<path class="st0" d="M40.4,31c-0.1-1.9,0.5-5.6,0.5-5.6l5.3-4.1H52l4.1,1.4l3.4,1.9l1.1,4.4v2.7L40.4,31z"/>
<path class="st1" d="M71.1,88.5c-0.1-1.9,0.5-5.6,0.5-5.6l5.3-4.1h5.8l4.1,1.4l3.4,1.9l1.1,4.4v2.7L71.1,88.5z"/>
<path class="st1" d="M83,73.2c1.1,0.1,2.4-3.1,3.1-5.2c0.7-2-2.3-3.6-2.3-3.6s-3.3-1.1-7.6,0.6v5.4C79.3,74,83,73.2,83,73.2z"/>
<path class="st2" d="M52.3,73.2c1.1,0.1,2.4-3.1,3.1-5.2c0.7-2-2.3-3.6-2.3-3.6s-3.3-1.1-7.6,0.6v5.4C48.6,74,52.3,73.2,52.3,73.2z"
	/>
<path class="st2" d="M40.4,88.6c-0.1-1.9,0.5-5.6,0.5-5.6l5.3-4.1H52l4.1,1.4l3.4,1.9l1.1,4.4v2.7L40.4,88.6z"/>
<path class="st3" d="M8.7,88.5c-0.1-1.9,0.5-5.6,0.5-5.6l5.3-4.1h5.8l4.1,1.4l3.4,1.9l1.1,4.4v2.7L8.7,88.5z"/>
<path class="st3" d="M21.2,73.2c1.1,0.1,2.4-3.1,3.1-5.2c0.7-2-2.3-3.6-2.3-3.6s-3.3-1.1-7.6,0.6v5.4C17.5,74,21.2,73.2,21.2,73.2z"
	/>
<title>Noun icons</title>
<path d="M50,17.9c3.7,0,6.6-3,6.6-6.7s-3-6.6-6.7-6.6c-3.7,0-6.6,3-6.6,6.7C43.4,15,46.3,17.9,50,17.9z M50,7.6c2,0,3.6,1.6,3.6,3.7
	S52,14.9,50,14.9s-3.6-1.6-3.6-3.6S48,7.6,50,7.6C50,7.6,50,7.6,50,7.6z"/>
<path d="M40,33.3h20c0.8,0,1.5-0.7,1.5-1.5l0,0v-6.1c0-0.4-0.1-0.7-0.3-1c-5.2-6.2-14.4-7-20.5-1.8c-0.6,0.5-1.2,1.1-1.8,1.8
	c-0.2,0.3-0.4,0.6-0.3,1v6.1C38.5,32.7,39.2,33.3,40,33.3z M41.5,26.3c4.3-4.7,11.6-5,16.3-0.7c0.2,0.2,0.5,0.4,0.7,0.7v4h-17V26.3z
	"/>
<path d="M43.3,68.5c0,3.7,3,6.7,6.6,6.7s6.7-3,6.7-6.6c0-3.7-3-6.7-6.6-6.7l0,0C46.3,61.8,43.4,64.8,43.3,68.5z M53.6,68.5
	c0,2-1.6,3.7-3.7,3.7s-3.6-1.6-3.6-3.7s1.6-3.7,3.7-3.7l0,0C52,64.8,53.7,66.5,53.6,68.5C53.7,68.5,53.7,68.5,53.6,68.5z"/>
<path d="M50,76.8c-4.3,0-8.4,1.9-11.2,5.2c-0.2,0.3-0.4,0.6-0.3,1v6c0,0.8,0.7,1.5,1.5,1.5h20c0.8,0,1.5-0.7,1.5-1.5v-6.1
	c0-0.4-0.1-0.7-0.3-1C58.4,78.6,54.3,76.8,50,76.8z M58.5,87.5h-17v-4c4.3-4.7,11.6-5,16.3-0.7c0.2,0.2,0.5,0.4,0.7,0.7V87.5z"/>
<path d="M18.8,75.1c3.7,0,6.6-3,6.6-6.7c0-3.7-3-6.6-6.6-6.6s-6.6,3-6.6,6.6C12.1,72.2,15.1,75.1,18.8,75.1z M18.8,64.8
	c2,0,3.6,1.6,3.6,3.7s-1.6,3.7-3.6,3.7s-3.6-1.6-3.6-3.7S16.7,64.8,18.8,64.8C18.8,64.8,18.8,64.8,18.8,64.8z"/>
<path d="M18.8,76.8c-4.3,0-8.4,1.9-11.1,5.2c-0.2,0.3-0.4,0.6-0.3,1v6c0,0.8,0.7,1.5,1.5,1.5l0,0h20c0.8,0,1.5-0.7,1.5-1.5v-6.1
	c0-0.4-0.1-0.7-0.4-1C27.1,78.6,23.1,76.8,18.8,76.8z M27.3,87.5h-17v-4c4.3-4.7,11.6-5,16.3-0.7c0.2,0.2,0.5,0.4,0.7,0.7V87.5z"/>
<path d="M74.6,68.5c0,3.7,3,6.7,6.7,6.7c3.7,0,6.7-3,6.7-6.7c0-3.7-3-6.7-6.7-6.7C77.6,61.8,74.6,64.8,74.6,68.5z M84.9,68.5
	c0,2-1.6,3.7-3.7,3.7s-3.7-1.6-3.7-3.7s1.6-3.7,3.7-3.7S84.9,66.5,84.9,68.5L84.9,68.5z"/>
<path d="M92.4,82c-5.2-6.2-14.4-7-20.5-1.8c-0.6,0.5-1.2,1.1-1.8,1.8c-0.2,0.3-0.4,0.6-0.3,1v6c0,0.8,0.7,1.5,1.5,1.5h20
	c0.8,0,1.5-0.7,1.5-1.5v-6.1C92.7,82.6,92.6,82.3,92.4,82z M89.7,87.6h-17v-4c4.3-4.7,11.6-5,16.3-0.7c0.2,0.2,0.5,0.4,0.7,0.7V87.6
	z"/>
<path d="M18.8,58.1c0.8,0,1.5-0.7,1.5-1.5v-8h28.2v8c0,0.8,0.7,1.5,1.5,1.5s1.5-0.7,1.5-1.5v-8h28.2v8c0,0.8,0.7,1.5,1.5,1.5
	s1.5-0.7,1.5-1.5v-9.4c0,0,0-0.1,0-0.1s0-0.1,0-0.1c0-0.8-0.7-1.5-1.5-1.5H51.5v-8c0-0.8-0.7-1.5-1.5-1.5s-1.5,0.7-1.5,1.5v8H18.8
	c-0.8,0-1.5,0.7-1.5,1.5c0,0,0,0.1,0,0.1s0,0.1,0,0.1v9.4C17.3,57.4,17.9,58.1,18.8,58.1z"/>
<path class="st4" d="M315.5,216.5c3.1,3.6,6.8,2.7,6.8,2.7c1.1,0.1,2.4-3.1,3.1-5.2"/>
<path class="st4" d="M315.5,216.5c3.1,3.6,6.8,2.7,6.8,2.7c1.1,0.1,2.4-3.1,3.1-5.2"/>
<path class="st0" d="M8.7,89.7"/>
</svg>
