<?xml version="1.0" encoding="utf-8"?>
<!-- Generator: Adobe Illustrator 21.1.0, SVG Export Plug-In . SVG Version: 6.00 Build 0)  -->
<svg version="1.1" id="Layer_1" xmlns="http://www.w3.org/2000/svg" xmlns:xlink="http://www.w3.org/1999/xlink" x="0px" y="0px"
	 viewBox="0 0 100 100" style="enable-background:new 0 0 100 100;" xml:space="preserve">
<style type="text/css">
	.st0{fill:#BE3881;stroke:#000000;stroke-miterlimit:10;}
	.st1{fill:#3A94BD;stroke:#000000;stroke-miterlimit:10;}
</style>
<path class="st0" d="M63.9,48.5c0.3-1.4,0-14.6,0-14.6l11.9,6.4l2.7,8.2L78,50.8L63.9,48.5z"/>
<polygon class="st1" points="57.1,41.7 57.1,55.4 70,55.4 70.9,59.7 64,68.4 54.2,69.2 42.9,59.6 42.9,52.1 48.7,44.5 52.9,41.7 
	55.8,40.3 "/>
<title>39 all</title>
<g>
	<path d="M88,22.6H12c-1.1,0-2,0.9-2,2v55c0,1.1,0.9,2,2,2h34.4l-11.8,11l2.7,2.9L50,83.7l12.6,11.7l2.7-2.9L53.6,81.6H88
		c1.1,0,2-0.9,2-2v-55C90,23.5,89.1,22.6,88,22.6z M86,77.6H14v-51h72V77.6z"/>
	<rect x="16" y="13.6" width="68" height="4"/>
	<rect x="40" y="4.6" width="20" height="4"/>
	<path d="M57.1,71.5c8.9,0,16.2-7.2,16.2-16.1l0,0c0-1.1-0.9-2-2-2H59.1V41.2c0-1.1-0.9-2-2-2c-8.9,0-16.2,7.2-16.2,16.1
		S48.2,71.5,57.1,71.5z M48.5,46.8c1.8-1.8,4.1-3,6.6-3.4v12c0,1.1,0.9,2,2,2h12c-1.1,6.6-7.4,11.1-14,10c-6.6-1.1-11.1-7.4-10-14
		C45.6,50.9,46.8,48.6,48.5,46.8z"/>
	<path d="M63.9,50.8H78c1.1,0,2-0.9,2-2c0-8.9-7.2-16.1-16.1-16.2c-1.1,0-2,0.9-2,2v14.2C61.9,49.9,62.8,50.8,63.9,50.8z M65.9,36.8
		c5.1,0.9,9.1,4.9,10,10h-10V36.8z"/>
	<rect x="20.3" y="50.1" width="14.5" height="4"/>
	<rect x="20.3" y="36.3" width="9.5" height="4"/>
	<rect x="20.3" y="63.8" width="9.2" height="4"/>
</g>
</svg>
