<svg xmlns="http://www.w3.org/2000/svg" data-name="Layer 1" viewBox="0 0 100 100" x="0px" y="0px"><title>39 all</title><g><path d="M88,22.56H12a2,2,0,0,0-2,2v55a2,2,0,0,0,2,2H46.44L34.65,92.51l2.72,2.93L50,83.68,62.62,95.35l2.72-2.93L53.64,81.56H88a2,2,0,0,0,2-2v-55A2,2,0,0,0,88,22.56Zm-2,55H14v-51H86Z"></path><rect x="16" y="13.56" width="68" height="4"></rect><rect x="40" y="4.56" width="20" height="4"></rect><path d="M57.14,71.53A16.15,16.15,0,0,0,73.29,55.38a2,2,0,0,0-2-2H59.14V41.23a2,2,0,0,0-2-2,16.15,16.15,0,1,0,0,32.3ZM48.54,46.79a12.06,12.06,0,0,1,6.59-3.4v12a2,2,0,0,0,2,2h12A12.15,12.15,0,1,1,48.54,46.79Z"></path><path d="M63.86,50.75H78a2,2,0,0,0,2-2A16.15,16.15,0,0,0,63.86,32.6a2,2,0,0,0-2,2V48.75A2,2,0,0,0,63.86,50.75Zm2-14a12.17,12.17,0,0,1,10,10h-10Z"></path><rect x="20.33" y="50.06" width="14.5" height="4"></rect><rect x="20.33" y="36.31" width="9.5" height="4"></rect><rect x="20.33" y="63.81" width="9.17" height="4"></rect></g></svg>