<?xml version="1.0" encoding="utf-8"?>
<!-- Generator: Adobe Illustrator 21.1.0, SVG Export Plug-In . SVG Version: 6.00 Build 0)  -->
<svg version="1.1" id="Layer_1" xmlns="http://www.w3.org/2000/svg" xmlns:xlink="http://www.w3.org/1999/xlink" x="0px" y="0px"
	 viewBox="0 0 100 100" style="enable-background:new 0 0 100 100;" xml:space="preserve">
<style type="text/css">
	.st0{fill:#5FA531;}
	.st1{fill:#C43A85;stroke:#000000;stroke-miterlimit:10;}
	.st2{fill:#3A94BD;}
</style>
<polyline class="st0" points="41.2,17.4 41.2,82.8 58.5,82.8 58.5,17.4 "/>
<path class="st1" d="M16.4,83.5c8.3-0.5,14.6-0.9,14.6-0.9V55.9h-16v26.3"/>
<polygon class="st2" points="68.1,39.1 85.8,39.1 85.8,82.8 68.8,82.8 "/>
<g>
	<path d="M33.6,85.1h5.7h21.3h5.7h21.3h8.1v-4h-8.1V37.5H66.4v43.6h-5.7V14.9H39.4v66.2h-5.7V54H12.4v27.1H4.2v4h8.1H33.6z
		 M70.4,41.5h13.3v39.6H70.4V41.5z M43.4,18.9h13.3v62.2H43.4V18.9z M16.4,58h13.3v23.1H16.4V58z"/>
</g>
<path class="st1" d="M41.2,81.2"/>
</svg>
