<?xml version="1.0" encoding="utf-8"?>
<!-- Generator: Adobe Illustrator 21.1.0, SVG Export Plug-In . SVG Version: 6.00 Build 0)  -->
<svg version="1.1" id="Layer_1" xmlns="http://www.w3.org/2000/svg" xmlns:xlink="http://www.w3.org/1999/xlink" x="0px" y="0px"
	 viewBox="0 0 48 48" style="enable-background:new 0 0 48 48;" xml:space="preserve">
<style type="text/css">
	.st0{fill:none;}
	.st1{fill:#3378A8;}
</style>
<path class="st0" d="M0,0h48v48H0V0z"/>
<path class="st1" d="M24,16c-4.4,0-8,3.6-8,8s3.6,8,8,8s8-3.6,8-8S28.4,16,24,16z M41.9,22C41,13.7,34.3,7,26,6.1V2h-4v4.1
	C13.7,7,7,13.7,6.1,22H2v4h4.1C7,34.3,13.7,41,22,41.9V46h4v-4.1C34.3,41,41,34.3,41.9,26H46v-4C46,22,41.9,22,41.9,22z M24,38
	c-7.7,0-14-6.3-14-14s6.3-14,14-14s14,6.3,14,14S31.7,38,24,38z"/>
</svg>
