<?xml version="1.0" encoding="utf-8"?>
<!-- Generator: Adobe Illustrator 21.1.0, SVG Export Plug-In . SVG Version: 6.00 Build 0)  -->
<svg version="1.1" id="Layer_1" xmlns="http://www.w3.org/2000/svg" xmlns:xlink="http://www.w3.org/1999/xlink" x="0px" y="0px"
	 viewBox="0 0 48 48" style="enable-background:new 0 0 48 48;" xml:space="preserve">
<style type="text/css">
	.st0{fill:none;}
	.st1{fill:#3378A8;}
</style>
<path class="st0" d="M0,0h48v48H0V0z"/>
<path class="st1" d="M38.1,9.9l-2.8,2.8C38.2,15.6,40,19.6,40,24c0,8.8-7.2,16-16,16S8,32.8,8,24c0-8.2,6.1-14.9,14-15.9v4
	c-5.7,1-10,5.9-10,11.8c0,6.6,5.4,12,12,12s12-5.4,12-12c0-3.3-1.3-6.3-3.5-8.5l-2.8,2.8c1.4,1.5,2.3,3.5,2.3,5.7c0,4.4-3.6,8-8,8
	s-8-3.6-8-8c0-3.7,2.6-6.8,6-7.7v4.3c-1.2,0.7-2,2-2,3.4c0,2.2,1.8,4,4,4s4-1.8,4-4c0-1.5-0.8-2.8-2-3.4V4h-2C13,4,4,13,4,24
	s9,20,20,20s20-9,20-20C44,18.5,41.8,13.5,38.1,9.9z"/>
</svg>
